<svg width="51" height="46" viewBox="0 0 51 46" fill="none" xmlns="http://www.w3.org/2000/svg">
<path d="M25.6118 0C32.4461 0 33.288 0.0452712 35.9622 0.135814C38.587 0.226356 40.4194 0.633797 42.0536 1.22232C43.7374 1.81085 45.1241 2.58046 46.5108 3.84805C47.8974 5.11565 48.7393 6.38324 49.3831 7.92247C50.027 9.41642 50.4727 11.0915 50.5717 13.4908C50.6708 15.9355 50.7203 16.7051 50.7203 22.9525C50.7203 29.1999 50.6708 29.9696 50.5717 32.4142C50.4727 34.8136 50.027 36.4886 49.3831 37.9826C48.7393 39.5218 47.8974 40.7894 46.5108 42.057C45.1241 43.3246 43.7374 44.0942 42.0536 44.6827C40.4194 45.2712 38.587 45.6787 35.9622 45.7692C33.288 45.8598 32.4461 45.905 25.6118 45.905C18.7775 45.905 17.9356 45.8598 15.2613 45.7692C12.6366 45.6787 10.8042 45.2712 9.16994 44.6827C7.48613 44.0942 6.09947 43.3246 4.71281 42.057C3.32614 40.7894 2.48424 39.5218 1.84043 37.9826C1.19663 36.4886 0.750914 34.8136 0.651867 32.4142C0.55282 29.9696 0.503296 29.1999 0.503296 22.9525C0.503296 16.7051 0.55282 15.9355 0.651867 13.4908C0.750914 11.0915 1.19663 9.41642 1.84043 7.92247C2.48424 6.38324 3.32614 5.11565 4.71281 3.84805C6.09947 2.58046 7.48613 1.81085 9.16994 1.22232C10.8042 0.633797 12.6366 0.226356 15.2613 0.135814C17.9356 0.0452712 18.7775 0 25.6118 0ZM25.6118 2.9879C18.4804 2.9879 17.6385 3.03317 14.8652 3.12372C12.2899 3.21426 10.8537 3.66697 9.91279 3.98387C7.48613 4.88929 5.85185 6.38324 4.86138 8.60153C4.51471 9.46169 4.01948 10.7746 3.92043 13.1287C3.82138 15.6638 3.77186 16.4335 3.77186 22.9525C3.77186 29.4716 3.82138 30.2412 3.92043 32.7764C4.01948 35.1305 4.51471 36.4433 4.86138 37.3035C5.85185 39.5218 7.48613 41.0157 9.91279 41.9212C10.8537 42.2381 12.2899 42.6908 14.8652 42.7813C17.6385 42.8719 18.4804 42.9171 25.6118 42.9171C32.7432 42.9171 33.5851 42.8719 36.3584 42.7813C38.9337 42.6908 40.3698 42.2381 41.3108 41.9212C43.7374 41.0157 45.3717 39.5218 46.3622 37.3035C46.7089 36.4433 47.2041 35.1305 47.3032 32.7764C47.4022 30.2412 47.4517 29.4716 47.4517 22.9525C47.4517 16.4335 47.4022 15.6638 47.3032 13.1287C47.2041 10.7746 46.7089 9.46169 46.3622 8.60153C45.3717 6.38324 43.7374 4.88929 41.3108 3.98387C40.3698 3.66697 38.9337 3.21426 36.3584 3.12372C33.5851 3.03317 32.7432 2.9879 25.6118 2.9879ZM25.6118 32.1426C31.1584 32.1426 35.6651 28.0229 35.6651 22.9525C35.6651 17.8821 31.1584 13.7625 25.6118 13.7625C20.0651 13.7625 15.5585 17.8821 15.5585 22.9525C15.5585 28.0229 20.0651 32.1426 25.6118 32.1426ZM25.6118 11.182C32.7432 11.182 38.4879 16.4335 38.4879 22.9525C38.4879 29.4716 32.7432 34.723 25.6118 34.723C18.4804 34.723 12.7356 29.4716 12.7356 22.9525C12.7356 16.4335 18.4804 11.182 25.6118 11.182ZM42.0536 10.7293C42.0536 12.2685 40.667 13.4456 38.9832 13.4456C37.2994 13.4456 36.0118 12.2685 36.0118 10.7293C36.0118 9.19006 37.2994 7.92247 38.9832 7.92247C40.667 7.92247 42.0536 9.19006 42.0536 10.7293Z" fill="#040F89"/>
</svg>
