<svg width="16" height="16" viewBox="0 0 16 16" fill="none" xmlns="http://www.w3.org/2000/svg">
<path fill-rule="evenodd" clip-rule="evenodd" d="M1.64601 4.64598C1.69245 4.59941 1.74763 4.56247 1.80838 4.53727C1.86912 4.51206 1.93424 4.49908 2.00001 4.49908C2.06578 4.49908 2.1309 4.51206 2.19164 4.53727C2.25239 4.56247 2.30756 4.59941 2.35401 4.64598L8.00001 10.293L13.646 4.64598C13.6925 4.59949 13.7477 4.56261 13.8084 4.53745C13.8692 4.5123 13.9343 4.49935 14 4.49935C14.0658 4.49935 14.1309 4.5123 14.1916 4.53745C14.2523 4.56261 14.3075 4.59949 14.354 4.64598C14.4005 4.69247 14.4374 4.74766 14.4625 4.80839C14.4877 4.86913 14.5006 4.93423 14.5006 4.99998C14.5006 5.06572 14.4877 5.13082 14.4625 5.19156C14.4374 5.2523 14.4005 5.30749 14.354 5.35398L8.35401 11.354C8.30756 11.4005 8.25239 11.4375 8.19164 11.4627C8.1309 11.4879 8.06578 11.5009 8.00001 11.5009C7.93424 11.5009 7.86912 11.4879 7.80838 11.4627C7.74763 11.4375 7.69245 11.4005 7.64601 11.354L1.64601 5.35398C1.59945 5.30753 1.5625 5.25236 1.5373 5.19161C1.51209 5.13087 1.49911 5.06575 1.49911 4.99998C1.49911 4.93421 1.51209 4.86909 1.5373 4.80834C1.5625 4.7476 1.59945 4.69242 1.64601 4.64598Z" fill="#F8F8F8"/>
</svg>
