<svg width="1920" height="772" viewBox="0 0 1920 772" fill="none" xmlns="http://www.w3.org/2000/svg">
<path fill-rule="evenodd" clip-rule="evenodd" d="M-2 772L78.125 670.139C158.25 565.597 318.5 359.194 478.75 359.194C639 359.194 799.25 565.597 959.5 565.597C1119.75 565.597 1280 359.194 1440.25 308.264C1600.5 257.333 1760.75 359.194 1840.88 412.806L1921 463.736V0H1840.88C1760.75 0 1600.5 0 1440.25 0C1280 0 1119.75 0 959.5 0C799.25 0 639 0 478.75 0C318.5 0 158.25 0 78.125 0H-2V772Z" fill="#040F89"/>
</svg>
