<svg width="394" height="67" viewBox="0 0 394 67" fill="none" xmlns="http://www.w3.org/2000/svg">
<path d="M13.67 66.14C11.5167 66.14 9.45833 65.5383 7.495 64.335C5.595 63.0683 4.01167 61.1683 2.745 58.635C1.54167 56.1017 0.94 53.03 0.94 49.42C0.94 44.9867 1.985 40.6167 4.075 36.31C6.22833 32.0033 9.07833 28.4883 12.625 25.765C16.1717 23.0417 19.94 21.68 23.93 21.68C26.0833 21.68 28.11 22.3133 30.01 23.58C31.91 24.7833 33.4617 26.6517 34.665 29.185C35.8683 31.7183 36.47 34.79 36.47 38.4C36.47 42.8333 35.425 47.2033 33.335 51.51C31.245 55.8167 28.4267 59.3317 24.88 62.055C21.3967 64.7783 17.66 66.14 13.67 66.14ZM14.05 63.86C16.5833 63.86 18.705 62.8467 20.415 60.82C22.125 58.7933 23.7083 56.07 25.165 52.65C26.495 49.5467 27.5717 46.19 28.395 42.58C29.2183 38.97 29.63 35.6767 29.63 32.7C29.63 30.1033 29.1233 28.0133 28.11 26.43C27.0967 24.7833 25.5767 23.96 23.55 23.96C21.0167 23.96 18.8633 25.005 17.09 27.095C15.3167 29.1217 13.7017 31.8133 12.245 35.17C10.915 38.2733 9.83833 41.63 9.015 45.24C8.19167 48.85 7.78 52.1433 7.78 55.12C7.78 57.7167 8.31833 59.8383 9.395 61.485C10.4717 63.0683 12.0233 63.86 14.05 63.86ZM51.8518 66.14C49.7618 66.14 48.0518 65.4433 46.7218 64.05C45.4552 62.5933 44.8218 60.63 44.8218 58.16C44.8218 55.7533 45.1702 53.1567 45.8668 50.37L52.7068 25.48H46.1518L46.8168 22.82H53.4668L59.6418 0.0199986H65.9118L59.7368 22.82H70.4718L69.8068 25.48H58.9768L51.0918 54.74C50.9018 55.3733 50.7118 56.26 50.5218 57.4C50.3952 58.4767 50.3318 59.3633 50.3318 60.06C50.3318 60.63 50.5535 61.2317 50.9968 61.865C51.4402 62.4983 52.1368 62.815 53.0868 62.815C53.9102 62.815 54.7335 62.5617 55.5568 62.055C57.0135 61.0417 58.2485 59.3317 59.2618 56.925C60.3385 54.455 61.3835 51.3833 62.3968 47.71L64.2968 48.28C63.0302 53.6633 61.4468 58.0017 59.5468 61.295C57.6468 64.525 55.0818 66.14 51.8518 66.14ZM139.588 18.968V65H131.944V58.196C130.488 60.548 128.444 62.396 125.812 63.74C123.236 65.028 120.38 65.672 117.244 65.672C113.66 65.672 110.44 64.944 107.584 63.488C104.728 61.976 102.46 59.736 100.78 56.768C99.1559 53.8 98.3439 50.188 98.3439 45.932V18.968H105.904V44.924C105.904 49.46 107.052 52.96 109.348 55.424C111.644 57.832 114.78 59.036 118.756 59.036C122.844 59.036 126.064 57.776 128.416 55.256C130.768 52.736 131.944 49.068 131.944 44.252V18.968H139.588ZM161.818 25.268V52.4C161.818 54.64 162.294 56.236 163.246 57.188C164.198 58.084 165.85 58.532 168.202 58.532H173.83V65H166.942C162.686 65 159.494 64.02 157.366 62.06C155.238 60.1 154.174 56.88 154.174 52.4V25.268H148.21V18.968H154.174V7.376H161.818V18.968H173.83V25.268H161.818ZM203.168 65.756C198.856 65.756 194.936 64.776 191.408 62.816C187.936 60.856 185.192 58.084 183.176 54.5C181.216 50.86 180.236 46.66 180.236 41.9C180.236 37.196 181.244 33.052 183.26 29.468C185.332 25.828 188.132 23.056 191.66 21.152C195.188 19.192 199.136 18.212 203.504 18.212C207.872 18.212 211.82 19.192 215.348 21.152C218.876 23.056 221.648 25.8 223.664 29.384C225.736 32.968 226.772 37.14 226.772 41.9C226.772 46.66 225.708 50.86 223.58 54.5C221.508 58.084 218.68 60.856 215.096 62.816C211.512 64.776 207.536 65.756 203.168 65.756ZM203.168 59.036C205.912 59.036 208.488 58.392 210.896 57.104C213.304 55.816 215.236 53.884 216.692 51.308C218.204 48.732 218.96 45.596 218.96 41.9C218.96 38.204 218.232 35.068 216.776 32.492C215.32 29.916 213.416 28.012 211.064 26.78C208.712 25.492 206.164 24.848 203.42 24.848C200.62 24.848 198.044 25.492 195.692 26.78C193.396 28.012 191.548 29.916 190.148 32.492C188.748 35.068 188.048 38.204 188.048 41.9C188.048 45.652 188.72 48.816 190.064 51.392C191.464 53.968 193.312 55.9 195.608 57.188C197.904 58.42 200.424 59.036 203.168 59.036ZM233.966 41.9C233.966 37.14 234.918 32.996 236.822 29.468C238.726 25.884 241.358 23.112 244.718 21.152C248.134 19.192 252.026 18.212 256.394 18.212C262.05 18.212 266.698 19.584 270.338 22.328C274.034 25.072 276.47 28.88 277.646 33.752H269.414C268.63 30.952 267.09 28.74 264.794 27.116C262.554 25.492 259.754 24.68 256.394 24.68C252.026 24.68 248.498 26.192 245.81 29.216C243.122 32.184 241.778 36.412 241.778 41.9C241.778 47.444 243.122 51.728 245.81 54.752C248.498 57.776 252.026 59.288 256.394 59.288C259.754 59.288 262.554 58.504 264.794 56.936C267.034 55.368 268.574 53.128 269.414 50.216H277.646C276.414 54.92 273.95 58.7 270.254 61.556C266.558 64.356 261.938 65.756 256.394 65.756C252.026 65.756 248.134 64.776 244.718 62.816C241.358 60.856 238.726 58.084 236.822 54.5C234.918 50.916 233.966 46.716 233.966 41.9ZM310.694 18.128C314.166 18.128 317.302 18.884 320.102 20.396C322.902 21.852 325.086 24.064 326.654 27.032C328.278 30 329.09 33.612 329.09 37.868V65H321.53V38.96C321.53 34.368 320.382 30.868 318.086 28.46C315.79 25.996 312.654 24.764 308.678 24.764C304.646 24.764 301.426 26.024 299.018 28.544C296.666 31.064 295.49 34.732 295.49 39.548V65H287.846V2.84H295.49V25.52C297.002 23.168 299.074 21.348 301.706 20.06C304.394 18.772 307.39 18.128 310.694 18.128ZM367.28 65L349.22 44.672V65H341.576V2.84H349.22V39.38L366.944 18.968H377.612L355.94 41.9L377.696 65H367.28ZM388.755 11.492C387.299 11.492 386.067 10.988 385.059 9.98C384.051 8.972 383.547 7.74 383.547 6.28399C383.547 4.828 384.051 3.596 385.059 2.588C386.067 1.58 387.299 1.076 388.755 1.076C390.155 1.076 391.331 1.58 392.283 2.588C393.291 3.596 393.795 4.828 393.795 6.28399C393.795 7.74 393.291 8.972 392.283 9.98C391.331 10.988 390.155 11.492 388.755 11.492ZM392.451 18.968V65H384.807V18.968H392.451Z" fill="white"/>
</svg>
