<svg width="24" height="27" viewBox="0 0 24 27" fill="none" xmlns="http://www.w3.org/2000/svg">
<path d="M18 8.40845V5.91549C18 5.13866 17.8448 4.36943 17.5433 3.65173C17.2417 2.93403 16.7998 2.28191 16.2426 1.73261C15.6855 1.1833 15.0241 0.747571 14.2961 0.45029C13.5681 0.153009 12.7879 0 12 0C11.2121 0 10.4319 0.153009 9.7039 0.45029C8.97595 0.747571 8.31451 1.1833 7.75736 1.73261C7.20021 2.28191 6.75825 2.93403 6.45672 3.65173C6.15519 4.36943 6 5.13866 6 5.91549V11.831C6 12.0551 6.09031 12.2701 6.25105 12.4285C6.4118 12.587 6.62981 12.6761 6.85714 12.6761C7.08447 12.6761 7.30249 12.587 7.46323 12.4285C7.62398 12.2701 7.71429 12.0551 7.71429 11.831V10.0986H14.5714V8.40845H7.71429V5.91549C7.71429 4.79486 8.16582 3.72013 8.96954 2.92772C9.77327 2.13531 10.8634 1.69014 12 1.69014C13.1366 1.69014 14.2267 2.13531 15.0305 2.92772C15.8342 3.72013 16.2857 4.79486 16.2857 5.91549V11.7887C16.2857 12.0129 16.376 12.2278 16.5368 12.3863C16.6975 12.5448 16.9155 12.6338 17.1429 12.6338C17.3702 12.6338 17.5882 12.5448 17.7489 12.3863C17.9097 12.2278 18 12.0129 18 11.7887V10.0986H22.2857V25.3099H1.71429V10.0986H4.28571V8.40845H0V25.3859C0 25.814 0.172484 26.2245 0.479508 26.5272C0.786532 26.8299 1.20295 27 1.63714 27H22.3629C22.7971 27 23.2135 26.8299 23.5205 26.5272C23.8275 26.2245 24 25.814 24 25.3859V8.40845H18Z" fill="#F8F8F8"/>
</svg>
