<svg width="51" height="46" viewBox="0 0 51 46" fill="none" xmlns="http://www.w3.org/2000/svg">
<path d="M46.1114 2.89371C44.7523 1.65099 40.9649 0 25.0952 0C8.08889 0 5.56582 1.89595 4.7561 2.51631C0.446721 5.80528 0.0375738 20.3664 0 23.3189C0.0517313 27.2185 0.547882 40.1923 4.75301 43.4017C5.56116 44.02 8.07008 45.905 25.0952 45.905C40.9751 45.905 44.7578 44.262 46.1114 43.0243C49.7843 39.6676 50.2068 28.1076 50.217 23.2682C50.2076 19.3768 49.8862 6.3481 46.1115 2.89377L46.1114 2.89371ZM44.2804 39.792C43.7341 40.2919 40.5972 41.9219 25.0951 41.9219C10.1079 41.9219 6.96325 40.4442 6.36912 39.9891C4.85637 38.836 3.25976 32.715 3.1344 23.3079C3.25824 13.9218 4.8768 7.06991 6.37236 5.93075C6.96805 5.47369 10.1244 3.98402 25.0951 3.98402C40.5847 3.98402 43.7301 5.62511 44.2804 6.12698C45.6231 7.35576 47.0606 13.8243 47.0817 23.2811C47.0606 32.8863 45.6136 38.5732 44.2804 39.792H44.2804ZM35.3183 21.386L21.213 10.3897C20.9752 10.2075 20.7036 10.1089 20.426 10.1038C20.1483 10.0987 19.8746 10.1874 19.6328 10.3608C19.3908 10.5342 19.1894 10.7862 19.0492 11.091C18.909 11.3958 18.835 11.7424 18.8349 12.0954V34.092C18.8351 34.6201 19.0003 35.1265 19.2943 35.5C19.5882 35.8734 19.9868 36.0833 20.4025 36.0836C20.6878 36.0836 20.9677 35.9848 21.2121 35.7978L35.3176 24.7975C35.7879 24.4361 36.0755 23.7899 36.0755 23.0918C36.0755 22.3937 35.7887 21.7455 35.3184 21.386H35.3183ZM21.971 30.564V15.6214L31.4746 23.0917L21.971 30.564Z" fill="#040F89"/>
</svg>
